HIERARCHY
ROOT Hips
{
  OFFSET 31.5428 102.736 257.603
  CHANNELS 6 Xposition Yposition Zposition Zrotation Xrotation Yrotation
  JOINT RightUpLeg
  {
    OFFSET -8.9458 -8.66707 0.101652
    CHANNELS 3 Zrotation Xrotation Yrotation
    JOINT RightLeg
    {
      OFFSET 0 -44.4227 1.3727
      CHANNELS 3 Zrotation Xrotation Yrotation
      JOINT RightFoot
      {
        OFFSET 0.253549 -42.0924 -1.46059
        CHANNELS 3 Zrotation Xrotation Yrotation
        JOINT RightToes
        {
          OFFSET 0.04 -4.41509 8.4991
          CHANNELS 3 Zrotation Xrotation Yrotation
          End Site
          {
            OFFSET -0.08 -0.137448 9.77979
          }
        }
      }
    }
  }
  JOINT Spine
  {
    OFFSET 0 11.8905 0
    CHANNELS 3 Zrotation Xrotation Yrotation
    JOINT Spine1
    {
      OFFSET 0 25.6574 0.127663
      CHANNELS 3 Zrotation Xrotation Yrotation
      JOINT HEad
      {
        OFFSET 0 8.73416 0.011341
        CHANNELS 3 Zrotation Xrotation Yrotation
        End Site
        {
          OFFSET -0.29 12.7742 2.51395
        }
      }
      JOINT LeftShoulder1
      {
        OFFSET 8.99 -0.362252 -0.22
        CHANNELS 3 Zrotation Xrotation Yrotation
        JOINT LeftArm
        {
          OFFSET 10.2827 -0.00338 0.322123
          CHANNELS 3 Zrotation Xrotation Yrotation
          JOINT LeftForeArm
          {
            OFFSET 32.7669 0.099144 -1.42434
            CHANNELS 3 Zrotation Xrotation Yrotation
            JOINT LeftHand
            {
              OFFSET 27.5643 0.085362 1.02216
              CHANNELS 3 Zrotation Xrotation Yrotation
              End Site
              {
                OFFSET 16.7443 -0.6 1.50291
              }
            }
          }
        }
      }
      JOINT RightShoulder
      {
        OFFSET -8.99 -0.362252 -0.22
        CHANNELS 3 Zrotation Xrotation Yrotation
        JOINT RightArm
        {
          OFFSET -10.2827 -0.00338 0.322123
          CHANNELS 3 Zrotation Xrotation Yrotation
          JOINT RightForeArm
          {
            OFFSET -32.8971 0.099144 -1.42434
            CHANNELS 3 Zrotation Xrotation Yrotation
            JOINT RightHand
            {
              OFFSET -27.4921 0.085362 1.02216
              CHANNELS 3 Zrotation Xrotation Yrotation
              End Site
              {
                OFFSET -16.6312 -0.6 1.50291
              }
            }
          }
        }
      }
    }
  }
  JOINT LeftUpLeg
  {
    OFFSET 8.9458 -8.66707 0.101652
    CHANNELS 3 Zrotation Xrotation Yrotation
    JOINT LeftLeg
    {
      OFFSET 0 -44.4227 1.3727
      CHANNELS 3 Zrotation Xrotation Yrotation
      JOINT LeftFoot
      {
        OFFSET -0.253549 -42.0924 -1.46059
        CHANNELS 3 Zrotation Xrotation Yrotation
        JOINT LeftToes
        {
          OFFSET -0.04 -4.41509 8.4991
          CHANNELS 3 Zrotation Xrotation Yrotation
          End Site
          {
            OFFSET 0.08 -0.047448 9.77979
          }
        }
      }
    }
  }
}
MOTION
Frames:	8
Frame Time:	0.0166667
31.5428 102.736 257.603 -2.1012 0.0973575 -176.131 2.12603 8.45685 -0.459881 0.64976 15.0545 -29.8504 13.5777 -4.797 0.0407405 0.0462048 0.000533964 0.662642 1.01913 4.34853 0.0335101 0.775453 7.23285 -0.0515079 -6.14791 -1.36876 5.02862 -3.97569e-016 0 -0 -89.1525 -51.2628 -8.07528 -7.24875 13.0913 -4.05619 0.368473 9.90896 -0.00117926 -4.516 0.433553 6.129 92.5469 -45.2932 11.7151 5.08808 13.1931 9.35688 -0.369625 9.91382 0.00119887 -1.89955 -23.3586 1.13149 -1.62616 19.8252 16.5956 0.37428 -6.19063 0.0929878 5.66059e-012 1.00124e-011 2.10616e-011 
31.0721 102.766 256.26 -2.16082 0.408534 -176.268 1.71065 9.09267 -0.301086 0.581736 16.0646 -29.2618 13.9648 -4.06268 -0.0375896 0.221331 -0.311097 0.500574 1.00843 4.34853 -0.0175557 0.432583 7.22905 -0.00914018 -5.96905 -1.25076 4.88829 -4.41391e-032 1.59028e-015 1.59028e-015 -88.8362 -51.4293 -7.73014 -6.98744 13.0702 -3.77216 0.368473 9.90896 -0.00117926 -4.15318 0.461576 6.07365 92.1135 -45.6368 11.2929 5.05217 13.1878 9.36563 -0.369625 9.91382 0.00119887 -2.01043 -23.0815 1.3718 -1.6762 21.0883 16.3321 0.348353 -5.61155 0.0902337 -0.344286 -1.54767 -0.959883 
30.5878 102.812 254.899 -2.21097 0.727614 -176.328 1.31053 9.67571 -0.167668 0.514061 17.1901 -28.8175 14.2945 -3.29432 -0.122314 0.281602 -0.29118 0.442713 0.995312 4.34853 -0.0654076 0.116666 7.23831 0.0297094 -5.74749 -1.13021 4.69273 -3.31043e-032 -1.59028e-015 -1.19271e-015 -88.584 -51.5163 -7.46902 -6.72627 13.0491 -3.48735 0.368473 9.90896 -0.00117926 -3.82542 0.482145 5.93933 91.6198 -45.9669 10.7548 5.07311 13.1908 9.43442 -0.369625 9.91382 0.00119887 -2.16095 -22.6757 1.34686 -1.83002 22.2595 16.2871 0.3435 -5.36076 0.0896816 -0.638453 -2.8668 -1.69476 
30.0607 102.899 253.477 -2.23108 1.06515 -176.134 0.979194 10.1551 -0.149135 0.48444 18.56 -28.8207 14.4729 -2.43068 -0.226045 -0.0144927 0.505223 0.708606 0.987014 4.34853 -0.10392 -0.110925 7.26847 0.0574884 -5.41819 -0.986936 4.31615 4.41391e-032 3.18055e-015 -7.95139e-016 -88.5279 -51.3545 -7.45148 -6.44702 13.0274 -3.17815 0.368473 9.90896 -0.00117926 -3.60348 0.478874 5.53767 90.9148 -46.2615 9.82494 5.28516 13.2209 9.70588 -0.369625 9.91382 0.00119887 -2.41157 -21.9401 0.476425 -2.34983 23.2352 16.9078 0.412761 -6.08194 0.0960622 -0.625098 -3.55962 -1.70576 
29.5248 103.021 252.047 -2.26003 1.4201 -175.904 0.63799 10.4725 -0.0815076 0.515445 20.1958 -28.9651 14.547 -1.51935 -0.337133 -0.41898 2.06924 1.05718 0.952214 4.34852 -0.138613 -0.326655 7.34822 0.0828003 -5.0051 -0.871195 3.91495 9.93923e-017 3.18055e-015 -0 -88.5478 -51.1397 -7.54959 -6.20586 13.0089 -2.91202 0.368473 9.90896 -0.00117926 -3.41584 0.470997 5.11792 90.2278 -46.5236 8.87592 5.51215 13.2529 9.99245 -0.369625 9.91382 0.00119887 -2.65588 -20.9516 -0.527799 -2.99114 23.9197 17.7315 0.481464 -7.15716 0.104002 -0.550607 -3.91285 -1.57755 
29.0091 103.184 250.648 -2.34715 1.79777 -175.835 0.199961 10.5499 0.177475 0.581361 22.2091 -28.9729 14.5481 -0.672784 -0.43928 -0.764881 4.71026 1.33137 0.861409 4.34726 -0.180175 -0.641581 7.52109 0.118691 -4.44671 -0.847685 3.63922 -6.95746e-016 3.18055e-015 7.95139e-016 -88.5399 -51.0771 -7.67179 -6.05995 12.9992 -2.77108 0.368473 9.90896 -0.00117926 -3.18217 0.476995 4.91207 89.8038 -46.7662 8.27194 5.58328 13.2634 10.1176 -0.369625 9.91382 0.00119887 -2.85113 -19.7064 -1.06975 -3.5303 24.1593 18.4089 0.479995 -8.19403 0.10951 -0.668948 -3.98168 -1.83897 
28.4989 103.378 249.277 -2.42399 2.19089 -175.802 -0.264178 10.3945 0.604698 0.784688 24.5007 -29.0683 14.4267 0.364891 -0.559291 -1.03505 7.91822 1.50726 0.71637 4.34912 -0.206982 -0.8909 7.75032 0.144331 -3.94324 -0.85378 3.38188 -1.98785e-016 0 -7.95139e-016 -88.5859 -50.9678 -7.8667 -5.98874 12.9943 -2.68753 0.368473 9.90896 -0.00117926 -2.99832 0.483012 4.7836 89.4765 -46.9718 7.7883 5.61917 13.2682 10.1904 -0.369625 9.91382 0.00119887 -2.99496 -18.2835 -1.43333 -4.01876 24.0764 18.9894 0.445047 -9.1596 0.112982 -0.816079 -4.05951 -2.1645 
27.9887 103.609 247.944 -2.43655 2.63264 -175.73 -0.699178 10.0655 1.25164 1.30725 26.9085 -29.3653 14.1111 1.87012 -0.726541 -0.863011 10.9819 1.21421 0.486697 4.35827 -0.197033 -0.918578 8.07016 0.138564 -3.70587 -0.882485 3.05972 -5.96354e-016 1.59028e-015 -7.95139e-016 -88.7287 -50.6303 -8.15611 -6.00864 12.9918 -2.61128 0.368473 9.90896 -0.00117926 -2.94726 0.479758 4.66409 89.1326 -47.1011 7.29697 5.71199 13.2786 10.2853 -0.369625 9.91382 0.00119887 -3.04905 -16.6816 -1.67645 -4.45177 23.6672 19.3989 0.388059 -9.80031 0.112872 -0.945668 -4.60699 -2.48099 
